# xmcd
#
# Track frame offsets:
#	150
#	18677
#	36899
#	55440
#	71385
#	87585
#	112847
#	117372
#	140177
#	169365
#	188930
#	202737
#	222805
#	239852
#
# Disc length: 3467 seconds
#
# Revision: 0
# Processed by: cddbd v1.5.1PL2 Copyright (c) Steve Scherf et al.
# Submitted via: dBpowerAMP V4.0
#
DISCID=d70d890e
DTITLE=Jeffrey Steele - Hell On Wheels
DYEAR=1900
DGENRE=Alternative Country
TTITLE0=Your Tears Are Comin
TTITLE1=Suite Natural Girl
TTITLE2=Sweet Salvation of Southern Rock and Roll
TTITLE3=Scratch Me Where I'm Itchin'
TTITLE4=Not That Cruel
TTITLE5=Tryin' To Find It
TTITLE6=Hit It Gordon
TTITLE7=Hollywood Girl
TTITLE8=Helldorado
TTITLE9=Drunk Girl
TTITLE10=Georgia Boy
TTITLE11=Sad Situation
TTITLE12=Down Here
TTITLE13=Hey God
EXTD=
EXTT0=
EXTT1=
EXTT2=
EXTT3=
EXTT4=
EXTT5=
EXTT6=
EXTT7=
EXTT8=
EXTT9=
EXTT10=
EXTT11=
EXTT12=
EXTT13=
PLAYORDER=
